<?xml version="1.0" standalone="no"?>
<!DOCTYPE svg PUBLIC "-//W3C//DTD SVG 20010904//EN"
 "http://www.w3.org/TR/2001/REC-SVG-20010904/DTD/svg10.dtd">
<svg version="1.0" xmlns="http://www.w3.org/2000/svg"
 width="241.000000pt" height="212.000000pt" viewBox="0 0 241.000000 212.000000"
 preserveAspectRatio="xMidYMid meet">

<g transform="translate(0.000000,212.000000) scale(0.100000,-0.100000)"
fill="#000000" stroke="none">
<path d="M1502 1955 c-52 -24 -172 -110 -172 -123 -1 -4 -21 -29 -44 -56 l-44
-48 -65 60 c-72 68 -89 78 -158 98 -135 40 -507 10 -634 -52 -152 -74 -255
-241 -255 -414 0 -81 11 -121 52 -189 45 -74 103 -105 243 -131 120 -22 175
-25 175 -10 0 6 -17 10 -37 10 -139 1 -293 97 -343 212 -19 45 -22 64 -17 130
4 45 15 99 28 127 55 129 281 269 493 306 160 29 307 14 381 -38 17 -12 52
-44 79 -71 l50 -49 -38 -66 c-79 -141 -147 -289 -166 -362 -34 -139 -38 -145
-122 -171 -40 -12 -66 -24 -58 -25 8 -2 41 5 73 16 41 14 57 16 57 8 0 -20
-38 -153 -86 -301 -84 -258 -211 -496 -266 -496 -11 0 -65 9 -120 20 -55 12
-102 19 -105 16 -5 -4 54 -18 160 -36 37 -7 67 -15 67 -20 0 -12 -114 -117
-147 -134 -74 -38 -214 -56 -270 -35 -56 21 -121 109 -108 148 10 31 53 64
102 77 31 8 39 13 23 13 -81 2 -163 -55 -175 -123 -10 -49 16 -116 60 -154 59
-52 126 -51 300 4 88 28 161 78 225 153 l39 45 58 -12 c32 -6 90 -13 128 -16
76 -5 69 -3 -75 20 -52 8 -96 17 -98 18 -1 2 21 37 51 79 53 73 88 130 215
347 57 98 153 319 183 418 10 35 20 47 52 63 21 11 37 23 34 26 -3 2 -15 -1
-27 -7 -12 -6 -24 -9 -27 -6 -3 3 11 52 31 108 21 57 52 145 69 196 17 50 34
92 37 92 10 0 180 -167 180 -177 0 -5 -15 -26 -34 -46 -18 -20 -30 -37 -26
-37 5 0 23 18 42 39 l33 39 75 -50 c97 -64 147 -89 245 -123 71 -24 91 -27
170 -23 77 4 102 10 169 42 83 38 158 93 177 129 18 33 13 80 -12 100 -30 24
-45 9 -70 -74 -18 -58 -29 -76 -71 -114 -92 -83 -221 -98 -375 -44 -86 30
-281 142 -290 166 -3 7 16 38 41 69 26 31 44 59 41 62 -3 3 -6 3 -8 1 -1 -2
-22 -30 -46 -62 l-42 -58 -52 43 c-68 57 -126 118 -133 140 -3 11 12 45 41 90
78 122 117 154 229 192 45 16 50 16 67 0 13 -12 19 -31 19 -61 0 -43 12 -57
24 -27 9 24 7 63 -5 87 -32 62 -107 74 -197 32z"/>
<path d="M1670 1795 c0 -8 5 -15 10 -15 6 0 10 7 10 15 0 8 -4 15 -10 15 -5 0
-10 -7 -10 -15z"/>
<path d="M1655 1727 c-4 -10 -5 -21 -1 -24 10 -10 18 4 13 24 -4 17 -4 17 -12
0z"/>
<path d="M1625 1647 c-4 -10 -5 -21 -1 -24 10 -10 18 4 13 24 -4 17 -4 17 -12
0z"/>
<path d="M648 1460 c-115 -21 -136 -28 -87 -29 l36 -1 17 -127 c52 -381 107
-757 111 -762 11 -10 33 26 78 124 l46 100 -19 140 c-80 590 -76 555 -56 555
8 0 18 5 21 10 9 14 -32 11 -147 -10z"/>
<path d="M1357 1333 c-13 -12 -7 -23 12 -23 10 0 21 7 25 15 5 15 -24 22 -37
8z"/>
<path d="M1285 1280 c-9 -15 3 -30 20 -24 23 9 27 34 5 34 -10 0 -22 -4 -25
-10z"/>
<path d="M1391 802 c-6 -12 -11 -28 -11 -37 0 -25 -59 -171 -80 -197 -16 -21
-36 -27 -141 -43 -67 -10 -117 -21 -112 -22 6 -2 62 4 125 13 62 9 141 19 175
21 34 3 67 11 73 19 8 9 9 47 1 135 -6 67 -12 124 -15 126 -2 3 -9 -4 -15 -15z"/>
<path d="M1669 758 c-1 -7 0 -58 1 -113 1 -95 0 -102 -29 -147 -16 -25 -55
-65 -85 -87 -65 -49 -76 -66 -13 -22 81 57 149 134 191 218 44 88 28 163 -35
163 -16 0 -30 -6 -30 -12z"/>
<path d="M983 493 c9 -2 25 -2 35 0 9 3 1 5 -18 5 -19 0 -27 -2 -17 -5z"/>
<path d="M880 480 l-25 -8 25 0 c14 0 39 4 55 8 l30 8 -30 0 c-16 0 -41 -4
-55 -8z"/>
<path d="M265 369 c4 -5 31 -9 62 -9 70 0 66 5 -10 13 -34 3 -55 2 -52 -4z"/>
<path d="M1458 344 c-38 -20 -36 -28 2 -9 17 9 30 18 30 20 0 7 -1 6 -32 -11z"/>
<path d="M1399 315 c-5 -5 -327 -51 -404 -58 -36 -3 -36 -4 10 -5 65 -2 376
42 401 56 10 6 14 12 8 12 -6 0 -13 -2 -15 -5z"/>
</g>
</svg>
