<svg width="975" height="242" viewBox="0 0 975 242" fill="none" xmlns="http://www.w3.org/2000/svg">
<path d="M101 0H0V179H101V0ZM101 182H0V240H101V182Z" fill="#FFF3B0"/>
<path d="M233.5 -0.000976562C298.544 -0.000976562 351.551 51.5344 353.917 116H216V120H353.997C353.998 120.166 354 120.333 354 120.5C354 120.667 353.998 120.834 353.997 121H355V242H234V240.996C233.833 240.997 233.667 241 233.5 241C166.95 241 113 187.05 113 120.5C113 53.9497 166.95 -0.000976562 233.5 -0.000976562Z" fill="#FFF3B0"/>
<path d="M468 240H367V61H468V240ZM468 58H367V0H468V58Z" fill="#FFF3B0"/>
<path d="M600.5 0C667.05 0 721 53.9497 721 120.5C721 123.358 720.898 126.192 720.702 129H721V241H609V240.702C606.356 240.886 603.688 240.986 601 240.997V120H597V240.947C595.325 240.899 593.658 240.818 592 240.702V241H480V129H480.298C480.102 126.192 480 123.358 480 120.5C480 53.9497 533.95 0 600.5 0Z" fill="#FFF3B0"/>
<path d="M853.5 -0.000976562C918.544 -0.000976562 971.551 51.5344 973.917 116H836V120H973.997C973.998 120.166 974 120.333 974 120.5C974 120.667 973.998 120.834 973.997 121H975V242H854V240.996C853.833 240.997 853.667 241 853.5 241C786.95 241 733 187.05 733 120.5C733 53.9497 786.95 -0.000976562 853.5 -0.000976562Z" fill="#FFF3B0"/>
</svg>
